<svg id="visual" viewBox="0 0 960 400" width="960" height="400" xmlns="http://www.w3.org/2000/svg" xmlns:xlink="http://www.w3.org/1999/xlink" version="1.1"><rect x="0" y="0" width="960" height="400" fill="#202731"></rect><path d="M0 135L22.8 137.5C45.7 140 91.3 145 137 141.3C182.7 137.7 228.3 125.3 274 127.3C319.7 129.3 365.3 145.7 411.2 154C457 162.3 503 162.7 548.8 157C594.7 151.3 640.3 139.7 686 136.8C731.7 134 777.3 140 823 138C868.7 136 914.3 126 937.2 121L960 116L960 0L937.2 0C914.3 0 868.7 0 823 0C777.3 0 731.7 0 686 0C640.3 0 594.7 0 548.8 0C503 0 457 0 411.2 0C365.3 0 319.7 0 274 0C228.3 0 182.7 0 137 0C91.3 0 45.7 0 22.8 0L0 0Z" fill="#fa7268"></path><path d="M0 128L22.8 128.2C45.7 128.3 91.3 128.7 137 122.8C182.7 117 228.3 105 274 103.8C319.7 102.7 365.3 112.3 411.2 111.8C457 111.3 503 100.7 548.8 100.8C594.7 101 640.3 112 686 114.8C731.7 117.7 777.3 112.3 823 111.7C868.7 111 914.3 115 937.2 117L960 119L960 0L937.2 0C914.3 0 868.7 0 823 0C777.3 0 731.7 0 686 0C640.3 0 594.7 0 548.8 0C503 0 457 0 411.2 0C365.3 0 319.7 0 274 0C228.3 0 182.7 0 137 0C91.3 0 45.7 0 22.8 0L0 0Z" fill="#ef5f67"></path><path d="M0 104L22.8 96.3C45.7 88.7 91.3 73.3 137 71.5C182.7 69.7 228.3 81.3 274 88.2C319.7 95 365.3 97 411.2 93.5C457 90 503 81 548.8 79.5C594.7 78 640.3 84 686 89.5C731.7 95 777.3 100 823 100.8C868.7 101.7 914.3 98.3 937.2 96.7L960 95L960 0L937.2 0C914.3 0 868.7 0 823 0C777.3 0 731.7 0 686 0C640.3 0 594.7 0 548.8 0C503 0 457 0 411.2 0C365.3 0 319.7 0 274 0C228.3 0 182.7 0 137 0C91.3 0 45.7 0 22.8 0L0 0Z" fill="#e34c67"></path><path d="M0 75L22.8 72.7C45.7 70.3 91.3 65.7 137 65C182.7 64.3 228.3 67.7 274 69.8C319.7 72 365.3 73 411.2 72.3C457 71.7 503 69.3 548.8 69.3C594.7 69.3 640.3 71.7 686 70.8C731.7 70 777.3 66 823 63.8C868.7 61.7 914.3 61.3 937.2 61.2L960 61L960 0L937.2 0C914.3 0 868.7 0 823 0C777.3 0 731.7 0 686 0C640.3 0 594.7 0 548.8 0C503 0 457 0 411.2 0C365.3 0 319.7 0 274 0C228.3 0 182.7 0 137 0C91.3 0 45.7 0 22.8 0L0 0Z" fill="#d53867"></path><path d="M0 37L22.8 34.5C45.7 32 91.3 27 137 27.7C182.7 28.3 228.3 34.7 274 38.8C319.7 43 365.3 45 411.2 42.8C457 40.7 503 34.3 548.8 34.5C594.7 34.7 640.3 41.3 686 44.5C731.7 47.7 777.3 47.3 823 46C868.7 44.7 914.3 42.3 937.2 41.2L960 40L960 0L937.2 0C914.3 0 868.7 0 823 0C777.3 0 731.7 0 686 0C640.3 0 594.7 0 548.8 0C503 0 457 0 411.2 0C365.3 0 319.7 0 274 0C228.3 0 182.7 0 137 0C91.3 0 45.7 0 22.8 0L0 0Z" fill="#c62368"></path></svg>